<svg width="150" height="38" viewBox="0 0 150 38" fill="none" xmlns="http://www.w3.org/2000/svg">
<path d="M5.8 28.24C4.28 28.24 3.01333 27.72 2 26.68C0.986667 25.64 0.48 24.0133 0.48 21.8C0.48 19.8267 0.866667 17.76 1.64 15.6C2.44 13.4133 3.61333 11.5733 5.16 10.08C6.73333 8.56 8.6 7.8 10.76 7.8C11.8533 7.8 12.6667 7.98667 13.2 8.36C13.7333 8.73333 14 9.22667 14 9.84V10L15.96 0.8L21.88 -1.90735e-06L17.28 21.6C17.1733 22 17.12 22.4267 17.12 22.88C17.12 23.4133 17.24 23.8 17.48 24.04C17.7467 24.2533 18.1733 24.36 18.76 24.36C19.5067 24.36 20.1467 24.04 20.68 23.4C21.24 22.76 21.68 21.9067 22 20.84H23.68C22.0533 25.6133 19.3733 28 15.64 28C14.5467 28 13.6533 27.7067 12.96 27.12C12.2933 26.5333 11.88 25.68 11.72 24.56C11.0267 25.6267 10.1867 26.5067 9.2 27.2C8.24 27.8933 7.10667 28.24 5.8 28.24ZM8.4 24.36C9.04 24.36 9.68 24.0667 10.32 23.48C10.9867 22.8933 11.44 22.08 11.68 21.04V20.84L13.64 11.68C13.4 10.7467 12.8533 10.28 12 10.28C10.9333 10.28 9.97333 10.9067 9.12 12.16C8.26667 13.3867 7.6 14.88 7.12 16.64C6.64 18.3733 6.4 19.9067 6.4 21.24C6.4 22.5733 6.58667 23.4267 6.96 23.8C7.36 24.1733 7.84 24.36 8.4 24.36ZM25.9756 28.24C24.6956 28.24 23.6556 27.84 22.8556 27.04C22.0823 26.24 21.6956 25.04 21.6956 23.44C21.6956 22.7733 21.8023 21.9067 22.0156 20.84L24.7356 8H30.4956L27.6156 21.6C27.5356 22 27.4956 22.3733 27.4956 22.72C27.4956 23.8133 27.8956 24.36 28.6956 24.36C29.4423 24.36 30.0823 24.0533 30.6156 23.44C31.149 22.8 31.5756 21.9333 31.8956 20.84L34.6156 8H40.3756L37.4956 21.6C37.389 22 37.3356 22.4267 37.3356 22.88C37.3356 23.4133 37.4556 23.8 37.6956 24.04C37.9623 24.2533 38.389 24.36 38.9756 24.36C39.7223 24.36 40.3623 24.04 40.8956 23.4C41.4556 22.76 41.8956 21.9067 42.2156 20.84H43.8956C42.909 23.72 41.6823 25.68 40.2156 26.72C38.7756 27.7333 37.3223 28.24 35.8556 28.24C34.709 28.24 33.789 27.92 33.0956 27.28C32.429 26.64 32.029 25.6933 31.8956 24.44C30.989 25.9067 30.029 26.9067 29.0156 27.44C28.029 27.9733 27.0156 28.24 25.9756 28.24ZM48.4509 38C47.1709 38 46.1043 37.6667 45.2509 37C44.3976 36.3333 43.9709 35.3733 43.9709 34.12C43.9709 32.6267 44.5976 31.3733 45.8509 30.36C47.1309 29.3467 48.6909 28.5467 50.5309 27.96L50.9709 26C50.1976 26.8533 49.4109 27.44 48.6109 27.76C47.8109 28.08 46.9976 28.24 46.1709 28.24C44.8909 28.24 43.8509 27.84 43.0509 27.04C42.2776 26.24 41.8909 25.04 41.8909 23.44C41.8909 22.7733 41.9976 21.9067 42.2109 20.84L44.9309 8H50.6909L47.8109 21.6C47.7309 21.92 47.6909 22.2533 47.6909 22.6C47.6909 23.7733 48.0909 24.36 48.8909 24.36C49.5843 24.36 50.1976 24.0667 50.7309 23.48C51.2643 22.8667 51.6909 22.0667 52.0109 21.08L54.8109 8H60.5709L56.6509 26.36C57.9843 26.0667 59.3176 25.8133 60.6509 25.6L64.6909 6.52H70.4509L69.8109 9.52C71.1443 8.37333 72.7043 7.8 74.4909 7.8C75.9843 7.8 77.1709 8.29333 78.0509 9.28C78.9309 10.2667 79.3709 11.88 79.3709 14.12C79.3709 16.2267 79.0643 18.36 78.4509 20.52C77.8376 22.6533 76.7976 24.48 75.3309 26C73.8643 27.4933 71.9309 28.24 69.5309 28.24C68.1976 28.24 66.9709 28.2 65.8509 28.12L64.0509 36.56L58.0109 38L60.1309 27.92C58.7976 27.9733 57.5043 28.12 56.2509 28.36L55.6509 31.2C55.1176 33.7867 54.1976 35.56 52.8909 36.52C51.5843 37.5067 50.1043 38 48.4509 38ZM66.5309 25C66.9309 24.9733 67.5176 24.96 68.2909 24.96C69.5709 24.96 70.6243 24.3467 71.4509 23.12C72.3043 21.8933 72.9176 20.44 73.2909 18.76C73.6909 17.0533 73.8909 15.4667 73.8909 14C73.8909 11.7867 73.2243 10.68 71.8909 10.68C71.4109 10.68 70.9176 10.8533 70.4109 11.2C69.9309 11.5467 69.5043 12.0267 69.1309 12.64L66.5309 25ZM47.5309 34.88C47.9843 34.88 48.4243 34.5733 48.8509 33.96C49.2776 33.3467 49.6109 32.4667 49.8509 31.32L50.0909 30.16C47.4776 31.12 46.1709 32.2533 46.1709 33.56C46.1709 33.9067 46.2909 34.2133 46.5309 34.48C46.7709 34.7467 47.1043 34.88 47.5309 34.88ZM94.815 28.24C93.1883 28.24 91.9883 27.8133 91.215 26.96C90.4683 26.08 90.095 25 90.095 23.72C90.095 23.16 90.1617 22.5333 90.295 21.84C90.4283 21.12 90.5617 20.4267 90.695 19.76C90.855 19.0933 90.9617 18.6667 91.015 18.48C91.2283 17.5467 91.4283 16.6267 91.615 15.72C91.8017 14.8133 91.895 14.08 91.895 13.52C91.895 12.16 91.415 11.48 90.455 11.48C89.7617 11.48 89.1483 11.8267 88.615 12.52C88.0817 13.1867 87.655 14.0667 87.335 15.16L84.615 28H78.855L84.655 0.8L90.575 -1.90735e-06L88.415 10.08C89.7483 8.58667 91.3083 7.84 93.095 7.84C94.455 7.84 95.535 8.21333 96.335 8.96C97.135 9.70667 97.535 10.84 97.535 12.36C97.535 13.1333 97.4417 14 97.255 14.96C97.0683 15.8933 96.8017 17.04 96.455 18.4C96.2417 19.2267 96.0417 20.04 95.855 20.84C95.695 21.6133 95.615 22.2267 95.615 22.68C95.615 23.2133 95.735 23.6267 95.975 23.92C96.215 24.2133 96.6283 24.36 97.215 24.36C98.015 24.36 98.655 24.08 99.135 23.52C99.615 22.9333 100.095 22.04 100.575 20.84H102.255C101.268 23.7733 100.122 25.7467 98.815 26.76C97.535 27.7467 96.2017 28.24 94.815 28.24ZM105.37 28.24C103.85 28.24 102.584 27.72 101.57 26.68C100.557 25.64 100.05 24.0133 100.05 21.8C100.05 19.8267 100.437 17.76 101.21 15.6C102.01 13.4133 103.184 11.5733 104.73 10.08C106.304 8.56 108.17 7.8 110.33 7.8C111.424 7.8 112.237 7.98667 112.77 8.36C113.304 8.73333 113.57 9.22667 113.57 9.84V10.12L114.01 8H119.77L116.89 21.6C116.784 22 116.73 22.4267 116.73 22.88C116.73 24.0267 117.277 24.6 118.37 24.6C119.117 24.6 119.757 24.2533 120.29 23.56C120.85 22.8667 121.29 21.96 121.61 20.84H123.29C122.304 23.72 121.077 25.68 119.61 26.72C118.17 27.7333 116.717 28.24 115.25 28.24C114.13 28.24 113.224 27.9333 112.53 27.32C111.864 26.68 111.464 25.76 111.33 24.56C110.557 25.6533 109.69 26.5467 108.73 27.24C107.797 27.9067 106.677 28.24 105.37 28.24ZM107.97 24.36C108.637 24.36 109.29 24.0533 109.93 23.44C110.597 22.8 111.05 21.9333 111.29 20.84L113.21 11.8C113.21 11.4533 113.077 11.12 112.81 10.8C112.544 10.4533 112.13 10.28 111.57 10.28C110.504 10.28 109.544 10.9067 108.69 12.16C107.837 13.3867 107.17 14.88 106.69 16.64C106.21 18.3733 105.97 19.9067 105.97 21.24C105.97 22.5733 106.157 23.4267 106.53 23.8C106.93 24.1733 107.41 24.36 107.97 24.36ZM145.265 28.24C143.852 28.24 142.825 27.8133 142.185 26.96C141.545 26.1067 141.225 25.0267 141.225 23.72C141.225 23.16 141.292 22.5333 141.425 21.84C141.558 21.12 141.692 20.4267 141.825 19.76C141.985 19.0933 142.092 18.6667 142.145 18.48C142.358 17.5467 142.558 16.6267 142.745 15.72C142.932 14.8133 143.025 14.08 143.025 13.52C143.025 12.16 142.545 11.48 141.585 11.48C140.892 11.48 140.278 11.8267 139.745 12.52C139.212 13.1867 138.785 14.0667 138.465 15.16L135.745 28H129.985L132.905 14.2C132.985 13.88 133.025 13.5467 133.025 13.2C133.025 12.0267 132.625 11.44 131.825 11.44C131.078 11.44 130.425 11.7867 129.865 12.48C129.332 13.1467 128.905 14.04 128.585 15.16L125.865 28H120.105L124.345 8H130.105L129.665 10.08C131.025 8.56 132.652 7.8 134.545 7.8C136.892 7.8 138.265 8.94667 138.665 11.24C140.132 8.97333 141.985 7.84 144.225 7.84C145.585 7.84 146.665 8.21333 147.465 8.96C148.265 9.70667 148.665 10.84 148.665 12.36C148.665 13.1333 148.572 14 148.385 14.96C148.198 15.8933 147.932 17.04 147.585 18.4C147.372 19.2267 147.172 20.04 146.985 20.84C146.825 21.6133 146.745 22.2267 146.745 22.68C146.745 23.2133 146.865 23.6267 147.105 23.92C147.345 24.2133 147.758 24.36 148.345 24.36C148.985 24.36 149.425 24.28 149.665 24.12C149.505 25.48 149.012 26.5067 148.185 27.2C147.385 27.8933 146.412 28.24 145.265 28.24Z" fill="#FF8C32"/>
</svg>
